<?xml version="1.0" standalone="no"?>
<!DOCTYPE svg PUBLIC "-//W3C//DTD SVG 20010904//EN"
 "http://www.w3.org/TR/2001/REC-SVG-20010904/DTD/svg10.dtd">
<svg version="1.0" xmlns="http://www.w3.org/2000/svg"
 width="678.000000pt" height="250.000000pt" viewBox="0 0 678.000000 250.000000"
 preserveAspectRatio="xMidYMid meet">

<g transform="translate(0.000000,250.000000) scale(0.100000,-0.100000)"
fill="#000000" stroke="none">
<path d="M1102 2230 c-71 -10 -208 -46 -231 -61 -12 -8 -9 -9 14 -5 204 35
342 29 530 -25 59 -17 109 -29 111 -26 2 2 1 18 -2 35 -6 28 -13 33 -68 51
-33 10 -77 22 -96 25 -65 12 -195 15 -258 6z"/>
<path d="M5882 1890 c-164 -18 -305 -89 -374 -191 -115 -167 -73 -411 86 -504
80 -47 153 -64 379 -90 296 -34 324 -40 364 -80 38 -38 41 -63 13 -121 -43
-88 -139 -127 -310 -127 -225 1 -451 94 -478 198 -5 16 -13 30 -18 32 -9 3
-144 -284 -144 -306 0 -13 28 -22 35 -11 11 17 38 11 130 -29 195 -86 383
-119 563 -101 252 26 406 109 478 257 25 51 28 70 29 153 0 88 -3 101 -33 162
-77 157 -189 205 -577 247 -104 12 -206 26 -226 31 -80 22 -113 77 -86 142 20
47 68 85 135 105 76 23 253 23 342 -1 132 -34 270 -116 270 -160 0 -13 7 -26
15 -30 11 -4 34 31 90 144 41 82 75 152 75 155 0 4 -20 3 -43 0 -37 -6 -61 0
-158 38 -218 85 -361 107 -557 87z"/>
<path d="M2710 1859 c0 -6 11 -20 25 -31 17 -13 25 -29 25 -50 0 -36 -508
-1098 -542 -1135 -12 -13 -29 -25 -40 -29 -10 -3 -18 -12 -18 -20 0 -12 35
-14 215 -14 121 0 215 4 215 9 0 5 -16 18 -35 30 -24 14 -35 28 -35 43 0 13
23 74 52 135 l53 112 298 1 298 0 56 -114 c61 -125 64 -157 18 -178 -14 -6
-25 -17 -25 -25 0 -10 45 -13 235 -13 197 0 235 2 235 14 0 8 -9 17 -19 21
-11 3 -34 22 -50 41 -37 41 -561 1097 -561 1129 0 23 28 55 48 55 7 0 12 7 12
15 0 13 -32 15 -230 15 -161 0 -230 -3 -230 -11z m324 -545 c53 -116 96 -214
96 -217 0 -4 -94 -7 -209 -7 l-209 0 105 225 c59 124 110 222 114 218 4 -4 50
-103 103 -219z"/>
<path d="M3860 1856 c0 -8 9 -18 21 -21 11 -4 24 -18 30 -32 5 -14 9 -255 9
-578 0 -323 -4 -564 -9 -578 -6 -14 -19 -28 -30 -32 -12 -3 -21 -13 -21 -21 0
-12 72 -14 498 -14 525 0 575 4 676 49 60 26 132 94 164 156 25 45 27 60 27
160 0 103 -2 113 -29 163 -31 56 -74 96 -140 129 l-39 20 36 22 c97 60 144
160 134 282 -11 133 -83 232 -205 281 -57 23 -60 23 -589 26 -466 3 -533 1
-533 -12z m987 -222 c36 -26 63 -79 63 -124 0 -45 -27 -98 -63 -124 -27 -20
-43 -21 -338 -24 l-309 -3 0 151 0 151 309 -3 c295 -3 311 -4 338 -24z m-89
-494 c135 -18 184 -62 185 -168 1 -97 -42 -152 -134 -171 -29 -6 -168 -11
-329 -11 l-280 0 0 173 c0 96 3 177 7 180 10 11 468 8 551 -3z"/>
<path d="M1040 1763 c-21 -55 -49 -227 -39 -237 9 -10 99 -30 104 -24 4 4 2
15 -3 25 -22 40 -44 178 -37 236 3 31 4 57 1 57 -2 0 -14 -26 -26 -57z"/>
<path d="M1670 1742 c-8 -3 -24 -15 -35 -27 -11 -13 -37 -28 -57 -35 -21 -6
-38 -16 -38 -22 0 -6 -6 -8 -13 -5 -8 3 -13 -3 -12 -18 0 -25 1 -25 190 -165
186 -138 378 -345 400 -433 13 -49 23 -39 31 29 9 91 0 221 -20 268 -24 57
-119 169 -216 254 -103 91 -200 158 -201 140 0 -8 -3 -7 -7 3 -4 9 -14 14 -22
11z"/>
<path d="M1466 1299 c4 -7 1 -10 -7 -7 -15 5 -39 -14 -39 -31 0 -6 -9 -11 -20
-11 -11 0 -20 -4 -20 -10 0 -5 -9 -10 -20 -10 -11 0 -20 -4 -20 -10 0 -5 -7
-10 -15 -10 -8 0 -15 -4 -15 -10 0 -5 -9 -10 -20 -10 -11 0 -20 -4 -20 -9 0
-5 -13 -11 -30 -14 -18 -4 -30 -13 -30 -22 0 -8 -7 -15 -16 -15 -9 0 -24 -8
-33 -18 -9 -10 -24 -21 -33 -25 -10 -3 -18 -10 -18 -15 0 -5 44 -38 98 -74
283 -189 524 -433 539 -547 3 -23 8 -41 12 -41 3 0 35 26 70 58 70 62 165 184
200 254 20 41 20 48 7 91 -18 59 -66 124 -153 208 -96 92 -263 213 -372 268
-46 24 -55 26 -45 10z"/>
<path d="M490 1260 c0 -31 43 -217 61 -265 19 -50 23 -55 57 -60 20 -3 45 -8
55 -10 9 -2 17 -1 17 1 0 2 -21 43 -47 90 -25 48 -59 123 -74 168 -22 62 -33
82 -49 84 -11 2 -20 -2 -20 -8z"/>
<path d="M730 900 c0 -4 6 -10 13 -13 6 -2 -7 -7 -30 -11 -23 -4 -44 -14 -47
-22 -3 -7 -12 -11 -21 -8 -10 4 -15 0 -15 -11 0 -11 -5 -15 -15 -11 -10 3 -20
-5 -30 -24 -17 -33 -17 -32 46 -49 30 -9 50 -21 57 -34 17 -39 129 -183 197
-255 83 -89 192 -173 269 -208 54 -24 66 -26 140 -20 84 6 132 16 204 42 38
14 42 19 42 48 0 112 -279 357 -565 496 -100 49 -245 96 -245 80z"/>
<path d="M401 693 c-1 -12 4 -25 9 -28 12 -7 12 2 0 30 -8 19 -9 19 -9 -2z"/>
<path d="M513 559 c-21 -21 -15 -29 23 -29 49 0 145 -52 215 -117 65 -60 79
-92 46 -101 -16 -4 -4 -11 48 -29 90 -30 115 -30 115 0 0 57 -127 173 -266
242 -80 40 -161 55 -181 34z"/>
<path d="M2130 405 c0 -16 7 -20 37 -20 l38 0 0 -78 c0 -73 1 -77 23 -77 21 0
22 4 22 80 l0 80 35 0 c27 0 35 4 35 18 0 15 -11 17 -95 17 -88 0 -95 -1 -95
-20z"/>
<path d="M4875 325 c0 -92 1 -95 23 -95 19 0 22 5 22 40 l0 40 58 0 c64 0 82
11 82 51 0 47 -22 59 -108 59 l-77 0 0 -95z m140 40 c0 -17 -8 -20 -47 -23
-46 -3 -48 -2 -48 23 0 25 2 26 48 23 39 -3 47 -6 47 -23z"/>
<path d="M2420 311 l0 -79 80 -4 c71 -3 80 -1 80 15 0 14 -10 17 -61 17 -52 0
-60 2 -57 18 3 13 13 17 41 16 28 -1 37 3 37 15 0 13 -8 16 -40 13 -35 -4 -40
-2 -40 17 0 19 6 21 55 21 42 0 55 3 55 15 0 12 -15 15 -75 15 l-75 0 0 -79z"/>
<path d="M2714 378 c-24 -11 -44 -48 -44 -78 0 -10 11 -31 23 -46 19 -22 32
-27 68 -27 52 0 91 17 83 37 -5 12 -11 12 -40 0 -29 -12 -39 -12 -62 -2 -33
16 -40 52 -16 80 18 19 22 20 98 6 33 -5 29 19 -5 31 -39 13 -77 13 -105 -1z"/>
<path d="M2950 310 c0 -73 2 -80 20 -80 16 0 20 7 20 35 0 35 0 35 45 35 45 0
45 0 45 -35 0 -28 4 -35 20 -35 18 0 20 7 20 80 0 77 -1 80 -23 80 -20 0 -23
-4 -19 -30 4 -30 4 -30 -43 -30 -47 0 -47 0 -43 30 4 26 1 30 -19 30 -22 0
-23 -3 -23 -80z"/>
<path d="M3235 310 c0 -70 2 -80 18 -80 14 0 17 9 17 53 l0 52 51 -53 c28 -28
59 -52 70 -52 17 0 19 8 19 80 0 73 -2 80 -20 80 -17 0 -20 -7 -20 -52 l0 -52
-45 44 c-24 24 -42 47 -39 52 3 4 -7 8 -23 8 l-28 0 0 -80z"/>
<path d="M3547 370 c-53 -42 -38 -118 27 -140 43 -14 81 -4 106 27 34 44 25
95 -21 118 -39 21 -82 19 -112 -5z m94 -20 c29 -16 25 -65 -6 -86 -52 -34
-111 31 -70 76 20 22 46 25 76 10z"/>
<path d="M3805 311 l0 -80 73 -3 c63 -3 72 -1 72 15 0 14 -9 17 -56 17 l-56 0
4 65 c4 60 2 65 -17 65 -18 0 -20 -6 -20 -79z"/>
<path d="M4072 374 c-56 -39 -44 -122 21 -143 44 -15 82 -6 107 26 34 44 25
95 -21 118 -37 19 -79 19 -107 -1z m89 -24 c28 -15 25 -65 -5 -85 -50 -33
-104 20 -72 70 17 27 45 32 77 15z"/>
<path d="M4349 371 c-32 -25 -40 -59 -23 -100 17 -41 73 -58 128 -39 34 11 39
17 40 45 1 30 -1 32 -41 35 -34 2 -43 0 -43 -13 0 -12 7 -15 25 -11 34 6 34
-24 1 -32 -59 -15 -102 33 -72 79 18 27 53 33 87 15 15 -9 21 -7 25 5 9 22 1
27 -53 32 -38 4 -53 1 -74 -16z"/>
<path d="M4620 346 c20 -29 30 -57 30 -80 0 -31 3 -36 23 -36 20 0 23 4 19 30
-3 22 5 42 32 80 l36 50 -30 0 c-18 0 -30 -5 -30 -13 0 -7 -7 -22 -15 -33 -14
-18 -15 -18 -27 14 -10 26 -18 32 -41 32 l-28 0 31 -44z"/>
<path d="M5168 310 l-37 -80 24 0 c14 0 24 3 24 8 -4 25 4 32 40 32 31 0 41
-4 46 -20 4 -12 15 -20 30 -20 23 0 23 0 -11 63 -18 34 -34 70 -34 80 0 11 -8
17 -22 17 -19 -1 -30 -16 -60 -80z m70 0 c11 -18 10 -20 -13 -20 -27 0 -28 1
-19 24 8 21 17 20 32 -4z"/>
<path d="M5420 310 c0 -73 2 -80 20 -80 16 0 20 7 20 30 0 41 35 41 58 0 11
-20 25 -30 40 -30 l24 0 -21 34 c-21 33 -21 34 -1 39 15 4 20 13 20 36 0 39
-22 51 -99 51 l-61 0 0 -80z m120 30 c0 -17 -7 -20 -40 -20 -33 0 -40 3 -40
20 0 17 7 20 40 20 33 0 40 -3 40 -20z"/>
<path d="M5670 375 c0 -11 11 -15 36 -15 l36 0 -4 -65 c-3 -59 -1 -65 17 -65
18 0 20 7 20 62 l0 63 33 3 c20 2 32 9 32 18 0 11 -18 14 -85 14 -69 0 -85 -3
-85 -15z"/>
<path d="M5930 310 c0 -73 2 -80 20 -80 17 0 20 7 20 53 l0 52 51 -53 c72 -75
84 -71 84 28 0 73 -2 80 -20 80 -18 0 -20 -6 -17 -52 l3 -53 -51 53 c-28 28
-60 52 -71 52 -17 0 -19 -8 -19 -80z"/>
<path d="M6220 311 l0 -79 80 -4 c71 -3 80 -1 80 15 0 14 -10 17 -61 17 -52 0
-60 2 -57 18 3 13 13 17 41 16 28 -1 37 3 37 15 0 13 -8 16 -40 13 -35 -4 -40
-2 -40 17 0 19 6 21 55 21 42 0 55 3 55 15 0 12 -15 15 -75 15 l-75 0 0 -79z"/>
<path d="M6480 310 c0 -73 2 -80 20 -80 16 0 20 7 20 30 0 22 5 30 18 30 21 0
52 -29 52 -48 0 -7 14 -12 31 -12 l31 0 -27 32 c-27 31 -27 32 -6 40 15 5 21
16 21 37 0 39 -23 51 -99 51 l-61 0 0 -80z m125 30 c0 -10 -13 -16 -42 -18
-38 -3 -43 -1 -43 18 0 19 5 21 43 18 29 -2 42 -8 42 -18z"/>
</g>
</svg>
